<?xml version="1.0" encoding="UTF-8"?>
<svg xmlns="http://www.w3.org/2000/svg" xmlns:xlink="http://www.w3.org/1999/xlink" width="16px" height="16px" viewBox="0 0 16 16" version="1.1">
<defs>
<filter id="alpha" filterUnits="objectBoundingBox" x="0%" y="0%" width="100%" height="100%">
  <feColorMatrix type="matrix" in="SourceGraphic" values="0 0 0 0 1 0 0 0 0 1 0 0 0 0 1 0 0 0 1 0"/>
</filter>
<mask id="mask0">
  <g filter="url(#alpha)">
<rect x="0" y="0" width="16" height="16" style="fill:rgb(0%,0%,0%);fill-opacity:0.996078;stroke:none;"/>
  </g>
</mask>
<clipPath id="clip1">
  <rect x="0" y="0" width="16" height="16"/>
</clipPath>
<g id="surface5" clip-path="url(#clip1)">
<path style=" stroke:none;fill-rule:evenodd;fill:rgb(92.941176%,92.941176%,92.941176%);fill-opacity:1;" d="M 7.265625 -0.015625 C 7.746094 -0.015625 8.222656 -0.015625 8.703125 -0.015625 C 11.894531 0.398438 14.136719 2.078125 15.4375 5.015625 C 15.71875 5.746094 15.898438 6.496094 15.984375 7.265625 C 15.984375 7.746094 15.984375 8.222656 15.984375 8.703125 C 15.570312 11.894531 13.890625 14.136719 10.953125 15.4375 C 10.222656 15.71875 9.472656 15.898438 8.703125 15.984375 C 8.222656 15.984375 7.746094 15.984375 7.265625 15.984375 C 4.074219 15.570312 1.832031 13.890625 0.53125 10.953125 C 0.25 10.222656 0.0703125 9.472656 -0.015625 8.703125 C -0.015625 8.222656 -0.015625 7.746094 -0.015625 7.265625 C 0.398438 4.074219 2.078125 1.832031 5.015625 0.53125 C 5.746094 0.25 6.496094 0.0703125 7.265625 -0.015625 Z M 7.265625 -0.015625 "/>
</g>
</defs>
<g id="surface1">
<use xlink:href="#surface5" mask="url(#mask0)"/>
<path style=" stroke:none;fill-rule:evenodd;fill:rgb(0.784314%,0.784314%,0.784314%);fill-opacity:1;" d="M 4.265625 7.671875 C 5.011719 7.703125 5.761719 7.714844 6.515625 7.703125 C 6.515625 7.910156 6.515625 8.121094 6.515625 8.328125 C 5.761719 8.316406 5.011719 8.328125 4.265625 8.359375 C 4.265625 9.058594 4.265625 9.753906 4.265625 10.453125 C 4.492188 10.492188 4.722656 10.523438 4.953125 10.546875 C 4.953125 10.722656 4.953125 10.902344 4.953125 11.078125 C 4.214844 11.078125 3.472656 11.078125 2.734375 11.078125 C 2.734375 10.902344 2.734375 10.722656 2.734375 10.546875 C 2.964844 10.515625 3.191406 10.484375 3.421875 10.453125 C 3.421875 8.816406 3.421875 7.183594 3.421875 5.546875 C 3.203125 5.507812 2.984375 5.46875 2.765625 5.421875 C 2.734375 5.246094 2.722656 5.070312 2.734375 4.890625 C 4.285156 4.890625 5.839844 4.890625 7.390625 4.890625 C 7.390625 5.378906 7.390625 5.871094 7.390625 6.359375 C 7.160156 6.359375 6.933594 6.359375 6.703125 6.359375 C 6.683594 6.089844 6.664062 5.816406 6.640625 5.546875 C 5.847656 5.546875 5.058594 5.546875 4.265625 5.546875 C 4.265625 6.253906 4.265625 6.964844 4.265625 7.671875 Z M 4.265625 7.671875 "/>
<path style=" stroke:none;fill-rule:evenodd;fill:rgb(0.392157%,0.392157%,0.392157%);fill-opacity:1;" d="M 10.859375 11.078125 C 9.941406 11.078125 9.027344 11.078125 8.109375 11.078125 C 8.101562 10.898438 8.109375 10.722656 8.140625 10.546875 C 8.359375 10.511719 8.578125 10.480469 8.796875 10.453125 C 8.796875 8.816406 8.796875 7.183594 8.796875 5.546875 C 8.554688 5.511719 8.316406 5.46875 8.078125 5.421875 C 8.078125 5.246094 8.078125 5.066406 8.078125 4.890625 C 8.996094 4.886719 9.910156 4.890625 10.828125 4.90625 C 12.066406 5.09375 12.84375 5.796875 13.15625 7.015625 C 13.246094 7.597656 13.257812 8.179688 13.1875 8.765625 C 13.066406 9.527344 12.707031 10.148438 12.109375 10.625 C 11.734375 10.890625 11.320312 11.042969 10.859375 11.078125 Z M 10.859375 11.078125 "/>
<path style=" stroke:none;fill-rule:evenodd;fill:rgb(92.941176%,92.941176%,92.941176%);fill-opacity:1;" d="M 9.640625 5.546875 C 11.238281 5.296875 12.160156 5.960938 12.40625 7.546875 C 12.507812 8.367188 12.332031 9.117188 11.875 9.796875 C 11.589844 10.15625 11.21875 10.363281 10.765625 10.421875 C 10.390625 10.421875 10.015625 10.421875 9.640625 10.421875 C 9.640625 8.796875 9.640625 7.171875 9.640625 5.546875 Z M 9.640625 5.546875 "/>
<path style=" stroke:none;fill-rule:evenodd;fill:rgb(37.647059%,37.647059%,37.647059%);fill-opacity:1;" d="M 4.265625 7.671875 C 5.027344 7.671875 5.785156 7.671875 6.546875 7.671875 C 6.546875 7.902344 6.546875 8.128906 6.546875 8.359375 C 5.785156 8.359375 5.027344 8.359375 4.265625 8.359375 C 5.011719 8.328125 5.761719 8.316406 6.515625 8.328125 C 6.515625 8.121094 6.515625 7.910156 6.515625 7.703125 C 5.761719 7.714844 5.011719 7.703125 4.265625 7.671875 Z M 4.265625 7.671875 "/>
<path style=" stroke:none;fill-rule:evenodd;fill:rgb(56.078431%,56.078431%,56.078431%);fill-opacity:1;" d="M 9.640625 5.546875 C 9.640625 7.171875 9.640625 8.796875 9.640625 10.421875 C 10.015625 10.421875 10.390625 10.421875 10.765625 10.421875 C 10.386719 10.453125 10 10.464844 9.609375 10.453125 C 9.597656 8.8125 9.609375 7.175781 9.640625 5.546875 Z M 9.640625 5.546875 "/>
<path style=" stroke:none;fill-rule:evenodd;fill:rgb(27.058824%,27.058824%,27.058824%);fill-opacity:1;" d="M 2.734375 10.546875 C 2.734375 10.722656 2.734375 10.902344 2.734375 11.078125 C 3.472656 11.078125 4.214844 11.078125 4.953125 11.078125 C 4.207031 11.109375 3.457031 11.121094 2.703125 11.109375 C 2.691406 10.914062 2.703125 10.726562 2.734375 10.546875 Z M 2.734375 10.546875 "/>
<path style=" stroke:none;fill-rule:evenodd;fill:rgb(24.705882%,24.705882%,24.705882%);fill-opacity:1;" d="M 8.140625 10.546875 C 8.109375 10.722656 8.101562 10.898438 8.109375 11.078125 C 9.027344 11.078125 9.941406 11.078125 10.859375 11.078125 C 9.9375 11.109375 9.011719 11.121094 8.078125 11.109375 C 8.058594 10.910156 8.078125 10.722656 8.140625 10.546875 Z M 8.140625 10.546875 "/>
</g>
</svg>
